<svg width="186" height="36" viewBox="0 0 186 36" fill="none" xmlns="http://www.w3.org/2000/svg">
    <g clip-path="url(#clip0_0_330)">
        <path
            d="M21.4235 30.369L21.4138 30.3641H16.2665V30.3545L3.78889 30.3641L3.80829 14.7325V10.5129H9.26604V6.74758H0.043662L0.029108 6.73308V6.74758L0 34.1391L22.6751 34.1149H25.1978V24.9119H21.4235V30.369Z"
            fill="#03A5FF" />
        <path
            d="M12.4 0V10.9479H16.1743V3.78464L30.4809 3.77497L30.4566 18.0145L30.4615 18.0193H12.3466V19.7594V21.7846H34.2698V0H12.4Z"
            fill="#03A5FF" />
        <path
            d="M44.3221 18.0532V12.5913C44.3221 11.1799 44.2978 9.78789 44.2542 8.41034L41.7072 8.13966V6.3126H59.2642L59.5019 12.1321H56.6833L56.0041 8.20733H50.0952C50.0709 9.49305 50.0564 10.7884 50.0467 12.0983C50.037 13.4082 50.0273 14.7277 50.0273 16.057H53.7967L54.2043 13.4179H56.1739V21.0306H54.2043L53.7628 18.0532H50.0273C50.0273 19.5661 50.0321 21.0016 50.0467 22.3695C50.0564 23.7326 50.0758 25.0811 50.0952 26.4103L53.1176 26.7148V28.5419H41.7072V26.7148L44.2542 26.4442C44.2978 25.0666 44.3221 23.6794 44.3221 22.2825V18.0532Z"
            fill="#002A47" />
        <path
            d="M69.4028 26.9951V28.5418H60.6607V26.9951L62.4412 26.5988C62.4606 25.8109 62.4751 24.9554 62.4751 24.037V20.059C62.4751 19.16 62.4703 18.4108 62.4606 17.8066C62.4509 17.2024 62.4218 16.574 62.3781 15.9167L60.3308 15.6218V14.341L67.2585 12.1369L67.8213 12.4994L67.7243 17.2652V24.0515C67.7243 24.9844 67.734 25.8544 67.7582 26.6664L69.4077 26.9951H69.4028Z"
            fill="#002A47" />
        <path
            d="M65.047 11.1558C64.2757 11.1558 63.6159 10.9092 63.0677 10.4162C62.5195 9.92321 62.243 9.30452 62.243 8.56016C62.243 7.8158 62.5195 7.16327 63.0677 6.67026C63.6159 6.17724 64.2757 5.93073 65.047 5.93073C65.8184 5.93073 66.4782 6.17724 67.0264 6.67026C67.5746 7.16327 67.8511 7.79163 67.8511 8.56016C67.8511 9.32869 67.5746 9.92321 67.0264 10.4162C66.4782 10.9092 65.8184 11.1558 65.047 11.1558Z"
            fill="#002A47" />
        <path
            d="M70.3931 28.5419V26.9952L72.2075 26.6327C72.2269 25.8207 72.2414 24.9555 72.2414 24.0371V19.6966C72.2414 19.0828 72.2366 18.5801 72.2269 18.1837C72.2172 17.7874 72.2026 17.4249 72.1929 17.0817C72.1832 16.7433 72.1638 16.3518 72.1444 15.9168L70.1311 15.622V14.3411L76.6319 12.137L77.2237 12.4995L77.5197 16.376C77.9611 14.9501 78.6015 13.8916 79.4505 13.1859C80.2946 12.485 81.1291 12.1322 81.9392 12.1322C82.6669 12.1322 83.2928 12.3352 83.8216 12.7412C84.3503 13.1472 84.6802 13.7562 84.8112 14.5634C84.787 15.419 84.559 16.0811 84.1175 16.55C83.676 17.0237 83.1278 17.2557 82.468 17.2557C81.5463 17.2557 80.6973 16.7433 79.9259 15.709L79.727 15.448C79.2419 15.9071 78.7956 16.4872 78.3929 17.188C77.9854 17.8889 77.6943 18.6236 77.5197 19.3921V23.9598C77.5197 24.8346 77.5294 25.6563 77.5536 26.4249L80.1588 26.9855V28.5323H70.3931V28.5419Z"
            fill="#002A47" />
        <path
            d="M107.011 12.1369C108.684 12.1369 109.902 12.6202 110.674 13.5821C111.445 14.5488 111.828 16.0037 111.828 17.9516V24.066C111.828 24.9843 111.838 25.8399 111.862 26.6277L113.512 26.9903V28.537H105.002V26.9903L106.618 26.5939C106.637 25.806 106.652 24.9553 106.652 24.0466V18.4446C106.652 17.2169 106.511 16.3904 106.225 15.965C105.939 15.5397 105.453 15.3222 104.774 15.3222C103.853 15.3222 102.926 15.7185 102.004 16.5064C102.024 16.7045 102.043 16.9075 102.053 17.1154C102.062 17.3232 102.067 17.5504 102.067 17.7872V24.0805C102.067 24.9892 102.077 25.8495 102.101 26.6616L103.654 26.9903V28.537H95.1444V26.9903L96.8618 26.5939C96.8812 25.806 96.8957 24.9553 96.8957 24.0466V18.4736C96.8957 17.3136 96.7599 16.4967 96.4834 16.023C96.2068 15.5542 95.7071 15.3173 94.9843 15.3173C94.5234 15.3173 94.0625 15.4285 93.5968 15.646C93.1359 15.8635 92.6945 16.1487 92.2773 16.5015V24.0466C92.2773 24.9795 92.287 25.8495 92.3112 26.6616L93.8636 26.9903V28.537H85.1895V26.9903L86.9699 26.5939C86.9893 25.806 87.0039 24.9505 87.0039 24.0321V19.7255C87.0039 18.8265 86.999 18.1304 86.9893 17.6374C86.9796 17.1444 86.9505 16.5692 86.9068 15.9118L84.8935 15.617V14.3361L91.3943 12.132L91.9862 12.4946L92.1851 14.892C92.9759 13.9736 93.786 13.2824 94.6108 12.8232C95.4355 12.364 96.3427 12.132 97.3323 12.132C99.5979 12.132 101.058 13.1084 101.718 15.0563C102.64 13.9591 103.523 13.2002 104.357 12.7701C105.192 12.3447 106.084 12.1272 107.03 12.1272L107.011 12.1369Z"
            fill="#002A47" />
        <path
            d="M119.784 18.0532V12.5913C119.784 11.1799 119.76 9.78789 119.716 8.41034L117.169 8.13966V6.3126H126.406C128.759 6.3126 130.661 6.58811 132.111 7.14396C133.562 7.69498 134.619 8.47318 135.284 9.47855C135.953 10.4839 136.288 11.6585 136.288 13.0118C136.288 14.3652 135.978 15.4769 135.352 16.5451C134.731 17.6182 133.707 18.4689 132.281 19.1021C130.855 19.7353 128.909 20.0494 126.44 20.0494H125.489C125.489 21.021 125.494 22.0408 125.509 23.109C125.518 24.1821 125.538 25.2793 125.562 26.4055L128.584 26.71V28.5371H117.174V26.71L119.721 26.4393C119.765 25.0618 119.789 23.6746 119.789 22.2777V18.0484L119.784 18.0532ZM126.338 8.275H125.557C125.533 9.67189 125.518 11.0833 125.504 12.5043C125.494 13.9254 125.484 15.3561 125.484 16.8013V18.1547H126.469C127.963 18.1547 129.084 17.6762 129.831 16.7191C130.578 15.7621 130.952 14.5151 130.952 12.978C130.952 11.441 130.549 10.2471 129.744 9.45921C128.938 8.67135 127.803 8.275 126.328 8.275H126.338Z"
            fill="#002A47" />
        <path
            d="M149.945 29.001C148.034 29.001 146.821 28.2132 146.316 26.6326C145.613 27.377 144.934 27.9618 144.289 28.392C143.639 28.8173 142.741 29.0349 141.601 29.0349C140.325 29.0349 139.287 28.6723 138.482 27.9521C137.676 27.2271 137.278 26.1879 137.278 24.8297C137.278 24.0418 137.453 23.3313 137.807 22.6933C138.157 22.0601 138.797 21.4656 139.719 20.9194C140.64 20.3732 141.95 19.856 143.643 19.3727C143.973 19.2615 144.357 19.1552 144.798 19.044C145.239 18.9328 145.691 18.8265 146.152 18.7153V17.6326C146.152 16.1632 145.972 15.1675 145.608 14.6407C145.244 14.1138 144.536 13.8528 143.478 13.8528H143.052C142.921 13.8528 142.765 13.8625 142.591 13.8866L142.426 15.3318C142.406 16.4049 142.154 17.1831 141.683 17.6664C141.208 18.1498 140.655 18.3915 140.019 18.3915C138.811 18.3915 138.074 17.8453 137.807 16.7481C137.895 15.3898 138.588 14.283 139.884 13.4274C141.179 12.5719 143.018 12.1466 145.395 12.1466C147.505 12.1466 149.019 12.6299 149.931 13.5918C150.843 14.5585 151.299 16.1439 151.299 18.3576V25.7191C151.299 26.3571 151.541 26.6713 152.026 26.6713C152.201 26.6713 152.366 26.6229 152.521 26.5214C152.677 26.4248 152.841 26.2314 153.016 25.9462L153.909 26.5359C153.511 27.4108 153.002 28.044 152.376 28.4258C151.75 28.8077 150.94 29.001 149.95 29.001H149.945ZM142.159 23.9693C142.159 24.7814 142.353 25.3807 142.736 25.7771C143.119 26.1734 143.59 26.3668 144.138 26.3668C144.444 26.3668 144.749 26.2943 145.045 26.1541C145.341 26.0139 145.71 25.7867 146.152 25.4822V20.1267C145.865 20.2137 145.584 20.3055 145.312 20.407C145.041 20.5085 144.803 20.6004 144.604 20.6874C143.857 20.9967 143.26 21.4269 142.823 21.9876C142.382 22.5483 142.164 23.2105 142.164 23.9742L142.159 23.9693Z"
            fill="#002A47" />
        <path
            d="M154.199 17.4635C154.199 15.9312 154.767 14.66 155.897 13.6498C157.028 12.6445 158.759 12.1369 161.093 12.1369C162.282 12.1369 163.315 12.2674 164.193 12.5333C165.071 12.7943 165.789 13.1713 166.337 13.6498L170.034 12.0741L170.563 12.4028V14.9355H167.429C167.827 15.6606 168.021 16.5016 168.021 17.4683C168.021 18.9377 167.453 20.1799 166.323 21.1998C165.192 22.2196 163.446 22.7272 161.093 22.7272C159.948 22.7272 158.949 22.5967 158.09 22.3308C157.828 22.79 157.692 23.2975 157.692 23.8437C157.692 24.2159 157.833 24.5156 158.119 24.7476C158.405 24.9796 158.9 25.0908 159.604 25.0908H163.465C165.134 25.0908 166.468 25.2938 167.458 25.6998C168.448 26.1058 169.156 26.6665 169.588 27.377C170.015 28.0875 170.233 28.9286 170.233 29.8904C170.233 30.9876 169.869 31.9978 169.146 32.9307C168.418 33.8636 167.337 34.6079 165.896 35.1638C164.455 35.7245 162.679 36 160.569 36C158.745 36 157.314 35.8211 156.28 35.4586C155.247 35.0961 154.519 34.6224 154.102 34.0279C153.685 33.4334 153.476 32.8099 153.476 32.1525C153.476 30.7508 154.388 29.6198 156.213 28.7691C155.528 28.4839 155.043 28.1117 154.743 27.6525C154.447 27.1933 154.296 26.6906 154.296 26.1396C154.296 25.3711 154.515 24.6412 154.956 23.9355C155.398 23.2347 156.023 22.5435 156.838 21.8668C155.96 21.4076 155.3 20.7938 154.859 20.0252C154.418 19.2567 154.199 18.406 154.199 17.4635ZM161.093 34.0618C162.742 34.0618 163.984 33.8201 164.819 33.3367C165.653 32.8534 166.07 32.254 166.07 31.529C166.07 31.0456 165.896 30.6155 165.542 30.2288C165.188 29.8469 164.562 29.6536 163.659 29.6536H160.195C158.987 29.6536 157.983 29.5569 157.193 29.3587C157.018 29.6633 156.882 29.9629 156.795 30.2481C156.707 30.5333 156.664 30.8716 156.664 31.268C156.664 32.2299 157.028 32.9404 157.75 33.3899C158.478 33.8394 159.584 34.0618 161.083 34.0618H161.093ZM161.127 13.7175C160.38 13.7175 159.817 14.0462 159.444 14.7035C159.07 15.3609 158.881 16.2696 158.881 17.4296C158.881 18.5897 159.055 19.508 159.41 20.1751C159.759 20.8421 160.312 21.1756 161.059 21.1756C161.806 21.1756 162.408 20.8373 162.791 20.1557C163.174 19.479 163.368 18.5558 163.368 17.3958C163.368 16.2358 163.174 15.3319 162.791 14.6842C162.408 14.0365 161.85 13.7127 161.127 13.7127V13.7175Z"
            fill="#002A47" />
        <path
            d="M179.174 12.137C180.625 12.137 181.862 12.4463 182.885 13.0554C183.909 13.6692 184.685 14.4958 185.209 15.535C185.738 16.5742 186 17.7632 186 19.1021C186 19.7401 185.932 20.3201 185.801 20.8422H176.268C176.38 22.5725 176.855 23.8486 177.704 24.6703C178.553 25.492 179.548 25.9028 180.688 25.9028C181.59 25.9028 182.356 25.7337 182.997 25.3953C183.632 25.057 184.195 24.6365 184.68 24.1289L185.835 25.1826C185.151 26.478 184.229 27.4399 183.065 28.0731C181.9 28.7063 180.513 29.0253 178.907 29.0253C177.301 29.0253 175.885 28.6918 174.653 28.0248C173.42 27.3577 172.455 26.391 171.751 25.1343C171.048 23.8728 170.694 22.3695 170.694 20.615C170.694 18.7734 171.106 17.2267 171.931 15.9651C172.756 14.7036 173.818 13.7514 175.113 13.1037C176.409 12.456 177.762 12.1322 179.169 12.1322L179.174 12.137ZM178.839 13.8481C178.223 13.8481 177.656 14.2251 177.141 14.9839C176.627 15.7428 176.331 17.1252 176.268 19.1408H179.072C179.863 19.1408 180.397 18.9813 180.673 18.6622C180.95 18.3432 181.085 17.8115 181.085 17.0672C181.085 15.97 180.867 15.1628 180.426 14.6359C179.984 14.1091 179.455 13.8481 178.844 13.8481H178.839Z"
            fill="#002A47" />
    </g>
    <defs>
        <clipPath id="clip0_0_330">
            <rect width="186" height="36" fill="white" />
        </clipPath>
    </defs>
</svg>